<mxfile host="app.diagrams.net" modified="2023-04-02T14:39:39.958Z" agent="Mozilla/5.0 (Macintosh; Intel Mac OS X 10_15_7) AppleWebKit/537.36 (KHTML, like Gecko) Chrome/111.0.0.0 Safari/537.36" version="21.1.2" etag="DB5KDLpRZzOQmCQZB8lc" type="github">
  <diagram name="PÃ¡gina-1" id="t2L8CnPRh0gNnqxvmzIr">
    <mxGraphModel>
      <root>
        <mxCell id="0" />
        <mxCell id="1" parent="0" />
      </root>
    </mxGraphModel>
  </diagram>
</mxfile>
